<?xml version="1.0" encoding="UTF-8" standalone="no"?>
<!-- Created with Inkscape (http://www.inkscape.org/) -->

<svg
   xmlns:dc="http://purl.org/dc/elements/1.1/"
   xmlns:cc="http://creativecommons.org/ns#"
   xmlns:rdf="http://www.w3.org/1999/02/22-rdf-syntax-ns#"
   xmlns:svg="http://www.w3.org/2000/svg"
   xmlns="http://www.w3.org/2000/svg"
   xmlns:sodipodi="http://sodipodi.sourceforge.net/DTD/sodipodi-0.dtd"
   xmlns:inkscape="http://www.inkscape.org/namespaces/inkscape"
   width="256"
   height="256"
   viewBox="0 0 67.733332 67.733335"
   version="1.1"
   id="svg5201"
   sodipodi:docname="favicon.svg"
   inkscape:version="0.92.3 (2405546, 2018-03-11)"
   inkscape:export-filename="C:\Users\j.mueller\Documents\big_crawler\bigdata_training\big_crawler\lab6_crawling_frontend\static\favicon.png"
   inkscape:export-xdpi="96"
   inkscape:export-ydpi="96">
  <defs
     id="defs5195" />
  <sodipodi:namedview
     id="base"
     pagecolor="#ffffff"
     bordercolor="#666666"
     borderopacity="1.0"
     inkscape:pageopacity="0.0"
     inkscape:pageshadow="2"
     inkscape:zoom="1.979899"
     inkscape:cx="220.95465"
     inkscape:cy="147.60482"
     inkscape:document-units="mm"
     inkscape:current-layer="layer1"
     showgrid="false"
     units="px"
     inkscape:snap-page="true"
     inkscape:snap-bbox="true"
     inkscape:snap-bbox-midpoints="true"
     inkscape:window-width="2880"
     inkscape:window-height="1706"
     inkscape:window-x="3829"
     inkscape:window-y="-11"
     inkscape:window-maximized="1" />
  <metadata
     id="metadata5198">
    <rdf:RDF>
      <cc:Work
         rdf:about="">
        <dc:format>image/svg+xml</dc:format>
        <dc:type
           rdf:resource="http://purl.org/dc/dcmitype/StillImage" />
        <dc:title></dc:title>
      </cc:Work>
    </rdf:RDF>
  </metadata>
  <g
     inkscape:label="Ebene 1"
     inkscape:groupmode="layer"
     id="layer1"
     transform="translate(0,-229.26665)">
    <circle
       style="opacity:1;fill:#343a40;fill-opacity:1;stroke:none;stroke-width:0.79374999;stroke-linejoin:round;stroke-miterlimit:4;stroke-dasharray:none;stroke-opacity:1"
       id="path5211"
       cx="33.866665"
       cy="263.13333"
       r="33.866665" />
    <path
       inkscape:connector-curvature="0"
       style="fill:#ffffff;stroke-width:0.30964881"
       d="m 22.298397,239.3387 c -0.381415,0.001 -0.922788,0.11657 -1.374671,0.30541 -2.625572,1.09704 -1.427773,4.66623 1.842168,5.48962 l 1.300283,0.32779 -1.197469,1.28879 c -0.658413,0.7088 -1.198979,1.37093 -1.201099,1.47205 -0.0022,0.10111 -1.113614,1.12103 -2.470538,2.26611 -3.956408,3.33875 -7.307893,8.07055 -8.024259,11.3294 -0.168467,0.76638 -0.386436,3.66264 -0.483827,6.4355 -0.206086,5.86748 0.07165,5.20563 -4.6296132,11.02881 l -2.9350109,3.95771 -0.039311,1.51438 c -0.038153,1.47786 0.140589,1.95587 0.8128279,2.75478 1.5886864,1.88804 4.6142077,2.76966 7.4642312,2.1754 0.720448,-0.15022 1.938337,-0.55109 2.706403,-0.89085 1.736267,-0.76803 8.610033,-4.8159 10.072659,-5.9317 0.596074,-0.45473 1.391603,-0.98819 1.76778,-1.18538 0.842966,-0.44187 4.747325,-1.16119 7.749082,-1.42728 1.232087,-0.1092 3.182874,-0.47722 4.335084,-0.81827 4.340168,-1.28469 7.06505,-1.84659 8.131308,-1.67646 3.065535,0.4891 12.177657,1.09215 13.936008,0.92229 2.589933,-0.25019 5.366077,-0.94791 6.915089,-1.73815 1.624425,-0.82872 4.057268,-3.13373 4.669526,-4.42398 0.694895,-1.46439 0.645182,-3.6499 -0.09858,-4.32299 -0.324821,-0.29396 -2.990327,-1.63147 -5.923243,-2.97251 -6.920119,-3.16415 -7.695424,-3.81309 -9.917835,-8.30004 -2.496123,-5.03956 -5.908942,-8.18279 -10.984064,-10.11741 -2.682062,-1.0224 -6.254117,-2.78563 -8.285529,-4.08954 -0.849446,-0.54524 -1.940036,-1.07788 -2.423968,-1.18417 -1.354109,-0.2974 -4.25997,0.48949 -5.912358,1.60146 l -1.488975,1.00213 -0.754769,-1.48958 c -0.769851,-1.51922 -2.163803,-2.92469 -3.238612,-3.26583 -0.08226,-0.0261 -0.191583,-0.038 -0.318721,-0.0375 z m 1.223476,1.1134 c 0.01599,-0.016 0.141498,0.0777 0.387062,0.27034 0.515796,0.40452 0.680015,0.65861 0.425162,0.65861 -0.0643,0 -0.308147,-0.24385 -0.541886,-0.54188 -0.192582,-0.24556 -0.286322,-0.37108 -0.270338,-0.38707 z m -1.888132,0.0853 c 0.721954,-0.0723 2.289096,1.00287 2.89449,2.03147 0.298038,0.50638 0.541886,0.98664 0.541886,1.06744 0,0.40044 -3.013279,-0.52964 -3.483549,-1.0753 -0.661264,-0.76728 -0.703569,-1.75611 -0.08527,-1.99337 0.04008,-0.0153 0.08432,-0.0254 0.132447,-0.0302 z m 12.076304,1.81495 c 0.308682,0.007 0.590077,0.035 0.76989,0.0817 0.824806,0.21399 2.356837,1.5304 2.356837,2.02481 -5.115886,-0.39757 3.573835,2.05112 -6.657449,1.23133 -0.708682,-0.0609 -1.645594,0.0988 -2.18992,0.37316 -0.523235,0.26372 -1.185109,0.44532 -1.470832,0.40339 -0.28573,-0.0419 -0.519507,0.051 -0.519507,0.20624 0,0.15523 -0.13315,0.28182 -0.29574,0.28182 -0.162587,0 -0.387121,-0.4877 -0.498945,-1.08377 -0.128866,-0.68692 -0.379349,-1.08377 -0.684615,-1.08377 -0.264888,0 -0.39529,-0.0861 -0.289691,-0.19172 0.105599,-0.10556 0.689721,-0.0984 1.298469,0.0157 0.749864,0.14068 1.033198,0.32714 0.878145,0.57878 -0.125878,0.20428 0.149073,0.12475 0.610831,-0.1772 0.461754,-0.30197 0.839438,-0.40647 0.839438,-0.23224 0,0.45206 1.294083,0.39097 2.517107,-0.11854 1.446856,-0.60263 2.912217,-0.57789 4.387699,-1.0251 0.567853,-0.32826 -0.572256,-1.02094 -1.756289,-1.06684 -1.206862,-0.0468 -1.219338,-0.0563 -0.228608,-0.17721 0.288532,-0.0352 0.624499,-0.048 0.93318,-0.0405 z m -3.744815,0.59874 c 0.426849,0.0178 0.409297,0.0709 -0.09556,0.28788 -0.828593,0.35606 -0.839352,0.35606 -0.619298,0 0.105259,-0.17031 0.426867,-0.29985 0.714854,-0.28788 z m -8.915709,0.28607 c 0.02611,-0.0118 0.173208,0.0916 0.459635,0.30178 0.340613,0.24985 0.677154,0.4937 0.748116,0.54188 0.07096,0.0482 -0.0163,0.0871 -0.194135,0.0871 -0.177837,0 -0.51438,-0.24385 -0.748117,-0.54188 -0.196551,-0.25063 -0.291611,-0.3771 -0.265499,-0.38888 z m 2.162703,0.97127 c 0.140309,0 0.28062,0.0212 0.387061,0.0641 0.212883,0.0859 0.0387,0.15663 -0.387061,0.15663 -0.425767,0 -0.599944,-0.0707 -0.387061,-0.15663 0.106441,-0.043 0.246752,-0.0641 0.387061,-0.0641 z m 14.546842,0.808 c 0.193828,0.0146 0.442114,0.11387 0.829764,0.27577 0.584009,0.24403 1.201378,0.35804 1.371648,0.25281 0.170269,-0.10522 0.477379,-0.059 0.682797,0.10345 0.205424,0.16236 1.264596,0.59933 2.35321,0.97067 1.088614,0.37136 2.375684,0.88018 2.860623,1.13095 0.484941,0.25077 0.988123,0.46184 1.117639,0.46871 0.129514,0.007 0.513943,0.25468 0.854557,0.55096 0.340617,0.29628 1.209476,0.93255 1.931073,1.41397 1.82141,1.21519 3.917194,3.75992 4.886041,5.93353 0.448685,1.00662 1.034611,2.31778 1.302098,2.91385 0.501118,1.1167 2.102853,3.14484 2.315712,2.93198 0.06595,-0.0659 0.500254,0.20705 0.965234,0.6066 0.464981,0.39954 3.222039,1.82176 6.126452,3.1606 5.545674,2.55636 6.119193,3.36644 6.119193,4.3756 -2.55747,10.33773 -18.560942,7.19587 -25.292624,6.73304 -0.786647,-0.19743 -4.273931,0.48562 -6.558872,1.28456 -1.959158,0.68504 -3.601882,1.04226 -5.55009,1.20715 -0.923851,0.0782 -1.743802,0.20583 -1.821608,0.28365 -1.062745,-0.301 -3.349181,0.0647 -3.882101,0.43302 -0.256823,0.21314 -0.651417,0.3564 -0.876935,0.31871 -2.069579,-0.37727 -8.123432,5.50102 -9.03969,4.76811 -0.107541,-0.10755 -0.195344,-0.0393 -0.195344,0.15181 0,0.51327 -4.275,2.92328 -4.725774,2.66407 -0.212271,-0.12207 -0.273186,-0.0995 -0.136076,0.0508 0.136137,0.14924 -0.281889,0.43542 -0.928946,0.63622 -0.647061,0.20082 -1.219231,0.3801 -1.271858,0.39795 -0.05263,0.0179 -0.0097,-0.10732 0.09556,-0.27759 0.105259,-0.1703 0.04368,-0.30966 -0.136682,-0.30966 -0.180359,0 -0.327792,0.13936 -0.327792,0.30966 0,0.63469 -2.9076254,0.32254 -4.5001888,-0.48321 -1.742281,-0.88153 -2.2347953,-1.48605 -2.4832392,-3.04933 -0.7569412,-2.8556 5.0848716,-6.94095 7.053584,-11.25984 0.264981,-0.31929 0.442876,-2.17377 0.55277,-5.76721 0.08908,-2.91286 0.289241,-5.49798 0.445121,-5.74484 0.155877,-0.24685 0.29841,-0.79432 0.316906,-1.21682 0.01849,-0.4225 0.203063,-0.82487 0.410042,-0.89387 0.206976,-0.0691 0.295532,-0.25655 0.196555,-0.4167 -0.276385,-0.44719 3.15486,-5.45965 3.899035,-5.69583 0.379727,-0.12052 0.589499,-0.38405 0.497131,-0.62475 -0.08841,-0.23039 0.374753,-0.89956 1.037203,-1.49805 1.658301,-1.36752 1.95247,-1.66676 2.833408,-2.40582 0.40395,-0.31065 0.900501,-0.56773 1.103729,-0.57153 0.203226,-0.004 0.57133,-0.29576 0.818271,-0.64832 0.261644,-0.37355 0.498454,-0.49315 0.567286,-0.28666 0.08126,0.24378 0.641223,0.14814 1.794996,-0.30663 0.950173,-0.37452 1.98737,-0.5831 2.392521,-0.48141 0.415808,0.10439 0.714854,0.0399 0.714854,-0.15421 0,-0.18361 -0.174176,-0.24573 -0.387061,-0.1379 -0.212885,0.10778 -0.122945,-0.0186 0.200182,-0.28122 0.323128,-0.26263 0.696919,-0.41027 0.830367,-0.3278 0.405067,0.0174 0.591593,-0.34109 0.941042,-0.47959 1.225427,1.67575 4.812575,2.4702 6.797154,-0.27216 0.40708,-0.5506 0.578083,-0.76167 0.901127,-0.73722 z m -13.153422,0.85456 -0.589663,0.6967 c -0.554339,0.65474 -0.803757,0.83808 -0.803757,0.59027 0,-0.0588 0.31352,-0.37228 0.696711,-0.69671 z m 9.179394,3.29546 c -1.059026,0.0105 -2.168382,0.0997 -3.327516,0.2661 -2.870517,0.41194 -5.137177,1.46009 -6.800177,3.14547 -1.664694,1.67358 -2.338194,3.61507 -2.021185,5.82406 0.276323,1.92549 1.061707,3.41037 2.356839,4.45423 1.30525,1.03035 3.162934,1.62544 5.573074,1.78593 1.191562,0.0701 2.312233,0.10825 3.361988,0.11434 1.061567,0.005 2.052641,0.0614 2.972508,0.17054 1.213545,0.13931 2.143173,0.44604 2.789862,0.91987 0.658506,0.47215 1.071976,1.29261 1.239807,2.46208 0.194951,1.35848 -0.257384,2.53256 -1.357133,3.52225 -1.087939,0.988 -2.718527,1.6379 -4.892089,1.94982 -1.535668,0.22038 -3.221229,0.15501 -5.055985,-0.19656 -1.834756,-0.35155 -3.498886,-0.98682 -4.993087,-1.90566 l -0.248567,0.0357 0.63079,4.39435 c 1.671124,0.47149 3.288063,0.77583 4.850962,0.91323 1.574713,0.13569 3.313178,0.0673 5.215043,-0.20563 1.771926,-0.25428 3.253418,-0.68384 4.444551,-1.28879 1.202942,-0.60665 2.222457,-1.35634 3.058989,-2.24798 0.762319,-0.82071 1.308124,-1.76695 1.636544,-2.83886 0.340229,-1.07358 0.436571,-2.1238 0.289085,-3.15151 -0.271237,-1.89005 -0.978422,-3.29007 -2.121578,-4.19901 -1.143151,-0.90895 -2.732589,-1.48226 -4.768108,-1.7206 -1.00425,-0.10908 -2.220232,-0.18151 -3.64805,-0.21773 -1.427819,-0.0362 -2.532036,-0.0829 -3.31179,-0.1397 -1.47682,-0.12564 -2.543648,-0.46105 -3.200511,-1.00576 -0.656863,-0.5447 -1.064006,-1.36651 -1.221662,-2.46509 -0.176304,-1.22854 0.246687,-2.31376 1.268834,-3.25615 1.03396,-0.94409 2.490107,-1.55086 4.368347,-1.8204 1.71286,-0.24582 3.42488,-0.20244 5.136421,0.13063 1.72166,0.31957 3.146039,0.83275 4.272185,1.53917 l 0.247963,-0.0357 -0.595107,-4.14639 c -1.267687,-0.34855 -2.701064,-0.58859 -4.299403,-0.7209 -0.599375,-0.0496 -1.216428,-0.0717 -1.851844,-0.0653 z"
       id="path7836" />
  </g>
</svg>
