<?xml version="1.0" encoding="UTF-8" standalone="no"?>
<!-- Created with Inkscape (http://www.inkscape.org/) -->

<svg
   xmlns:dc="http://purl.org/dc/elements/1.1/"
   xmlns:cc="http://creativecommons.org/ns#"
   xmlns:rdf="http://www.w3.org/1999/02/22-rdf-syntax-ns#"
   xmlns:svg="http://www.w3.org/2000/svg"
   xmlns="http://www.w3.org/2000/svg"
   xmlns:sodipodi="http://sodipodi.sourceforge.net/DTD/sodipodi-0.dtd"
   xmlns:inkscape="http://www.inkscape.org/namespaces/inkscape"
   width="51.545494mm"
   height="12.659962mm"
   viewBox="0 0 51.545494 12.659962"
   version="1.1"
   id="svg6317"
   inkscape:version="0.92.3 (2405546, 2018-03-11)"
   sodipodi:docname="logo.svg">
  <defs
     id="defs6311" />
  <sodipodi:namedview
     id="base"
     pagecolor="#ffffff"
     bordercolor="#666666"
     borderopacity="1.0"
     inkscape:pageopacity="0.0"
     inkscape:pageshadow="2"
     inkscape:zoom="3.959798"
     inkscape:cx="127.04573"
     inkscape:cy="-9.4504469"
     inkscape:document-units="mm"
     inkscape:current-layer="layer1"
     showgrid="false"
     fit-margin-top="0"
     fit-margin-left="0"
     fit-margin-right="0"
     fit-margin-bottom="0"
     inkscape:snap-page="true"
     inkscape:window-width="2560"
     inkscape:window-height="1346"
     inkscape:window-x="-11"
     inkscape:window-y="1344"
     inkscape:window-maximized="1" />
  <metadata
     id="metadata6314">
    <rdf:RDF>
      <cc:Work
         rdf:about="">
        <dc:format>image/svg+xml</dc:format>
        <dc:type
           rdf:resource="http://purl.org/dc/dcmitype/StillImage" />
        <dc:title></dc:title>
      </cc:Work>
    </rdf:RDF>
  </metadata>
  <g
     inkscape:label="Ebene 1"
     inkscape:groupmode="layer"
     id="layer1"
     transform="translate(-23.931122,-67.853056)">
    <rect
       style="opacity:1;fill:#343a40;fill-opacity:1;stroke:none;stroke-width:0.79374999;stroke-linejoin:round;stroke-miterlimit:4;stroke-dasharray:none;stroke-opacity:1"
       id="rect6331"
       width="51.545494"
       height="12.659962"
       x="23.931122"
       y="67.853058" />
    <g
       id="g7891"
       transform="translate(21.033618,53.403557)">
      <path
         id="path7836"
         d="m 7.712537,14.449605 c -0.095561,4.12e-4 -0.2312,0.02922 -0.3444174,0.07652 -0.6578248,0.274856 -0.3577222,1.169102 0.4615466,1.375396 l 0.3257806,0.08212 -0.3000209,0.3229 c -0.1649621,0.177588 -0.3003983,0.343478 -0.3009296,0.368813 -5.571e-4,0.02534 -0.279011,0.28087 -0.6189816,0.567765 -0.99126,0.836509 -1.8309586,2.022039 -2.010441,2.838528 -0.042211,0.192014 -0.09682,0.917659 -0.1212203,1.612383 -0.05163,1.470071 0.017955,1.30425 -1.1599281,2.763221 l -0.7353537,0.991583 -0.00985,0.379419 c -0.00956,0.370273 0.03522,0.490035 0.2036501,0.690197 0.398038,0.473044 1.156068,0.693927 1.8701284,0.545039 0.1805047,-0.03763 0.4856418,-0.13807 0.6780768,-0.223197 0.4350136,-0.192428 2.1572029,-1.206605 2.5236573,-1.486163 0.1493434,-0.113935 0.3486593,-0.247585 0.4429089,-0.296989 0.211201,-0.110708 1.1894208,-0.29093 1.9414969,-0.3576 0.308694,-0.02737 0.797454,-0.119577 1.086135,-0.205014 1.087408,-0.321874 1.770115,-0.462652 2.03726,-0.42003 0.768057,0.122545 3.051058,0.273638 3.491603,0.231077 0.648897,-0.06269 1.344446,-0.237492 1.732544,-0.435485 0.406994,-0.207631 1.016532,-0.785143 1.169933,-1.108408 0.174106,-0.366895 0.161647,-0.914465 -0.0247,-1.083105 -0.08138,-0.07365 -0.74921,-0.408755 -1.484039,-0.744748 -1.733807,-0.79275 -1.928056,-0.955338 -2.484872,-2.079522 -0.625392,-1.262639 -1.480457,-2.050159 -2.752006,-2.53487 -0.671977,-0.256157 -1.56694,-0.697927 -2.0759,-1.024616 -0.212825,-0.136608 -0.486067,-0.270057 -0.607314,-0.296686 -0.339266,-0.07452 -1.0673153,0.122644 -1.481313,0.401238 L 8.7929135,15.650446 8.6038099,15.277238 C 8.4109278,14.896603 8.0616794,14.544469 7.7923912,14.459001 c -0.020608,-0.0065 -0.048,-0.0096 -0.079854,-0.0095 z m 0.3065367,0.278958 c 0.004,-0.0039 0.035448,0.01947 0.096976,0.06773 0.1292304,0.101348 0.1703758,0.165021 0.1065219,0.165021 -0.016105,0 -0.077205,-0.06111 -0.1357667,-0.135767 -0.04825,-0.06151 -0.071738,-0.09297 -0.06773,-0.09698 z m -0.4730632,0.02137 c 0.180882,-0.01813 0.5735225,0.251262 0.725201,0.508975 0.074672,0.12688 0.1357667,0.247196 0.1357667,0.267441 0,0.100325 -0.7549634,-0.132702 -0.8727868,-0.269411 -0.1656768,-0.19224 -0.1762773,-0.439984 -0.021366,-0.499428 0.010051,-0.0038 0.021123,-0.0064 0.033182,-0.0076 z m 3.0256615,0.454729 c 0.07734,0.0018 0.147841,0.0087 0.192892,0.02046 0.206652,0.0536 0.590494,0.383436 0.590494,0.507307 -1.281761,-0.0996 0.895409,0.5139 -1.6679916,0.308506 -0.1775575,-0.01524 -0.4122962,0.02476 -0.5486744,0.09349 -0.131093,0.06607 -0.2969232,0.111571 -0.3685097,0.101076 -0.071586,-0.01047 -0.1301609,0.0127 -0.1301609,0.05167 0,0.0389 -0.033355,0.0706 -0.074095,0.0706 -0.040738,0 -0.096992,-0.122176 -0.1250084,-0.271533 -0.032287,-0.172112 -0.095045,-0.271534 -0.1715256,-0.271534 -0.066365,0 -0.099039,-0.02158 -0.072579,-0.04802 0.026459,-0.02646 0.172806,-0.02467 0.3253252,0.0039 0.1878751,0.03524 0.2588627,0.08196 0.2200151,0.145016 -0.031536,0.05118 0.037351,0.03125 0.1530413,-0.04439 0.1156897,-0.07567 0.2103174,-0.101841 0.2103174,-0.05819 0,0.113259 0.3242261,0.09796 0.6306493,-0.02968 0.3625033,-0.150982 0.7296423,-0.144779 1.0993173,-0.256835 0.142272,-0.08224 -0.143375,-0.255789 -0.440029,-0.267291 -0.302375,-0.01182 -0.305501,-0.01414 -0.05728,-0.04439 0.07229,-0.0089 0.156466,-0.01195 0.233804,-0.0101 z m -0.9382459,0.150003 c 0.1069444,0.0046 0.1025471,0.01777 -0.023944,0.07213 -0.2076003,0.08921 -0.2102955,0.08921 -0.1551614,0 0.026368,-0.04267 0.1069505,-0.07512 0.1791028,-0.07213 z m -2.2337886,0.07168 c 0.00652,-0.003 0.043399,0.02298 0.1151588,0.0756 0.08534,0.06261 0.1696577,0.123688 0.1874372,0.135766 0.017774,0.01219 -0.0041,0.02181 -0.048645,0.02181 -0.044558,0 -0.128875,-0.06109 -0.1874364,-0.135766 -0.049244,-0.06278 -0.073064,-0.09449 -0.066524,-0.09743 z m 0.5418545,0.243351 c 0.035153,0 0.070306,0.0053 0.096977,0.01614 0.053334,0.02153 0.00971,0.03924 -0.096977,0.03924 -0.1066722,0 -0.1503136,-0.01777 -0.096976,-0.03924 0.026663,-0.01072 0.061825,-0.01614 0.096976,-0.01614 z m 3.644644,0.202438 c 0.04856,0.0036 0.11077,0.02852 0.207893,0.0691 0.146322,0.06114 0.301,0.0897 0.34366,0.06334 0.04267,-0.02637 0.119601,-0.0147 0.171072,0.02592 0.05147,0.04068 0.316839,0.150166 0.589586,0.243198 0.272747,0.09303 0.595217,0.220523 0.716715,0.283352 0.121498,0.06284 0.247571,0.11571 0.280021,0.117434 0.03244,0.0017 0.128765,0.0638 0.214104,0.138035 0.08533,0.07422 0.303028,0.233647 0.483822,0.354266 0.456345,0.304456 0.981433,0.942028 1.224174,1.486616 0.112409,0.252206 0.259217,0.580707 0.326233,0.73005 0.125556,0.279785 0.526861,0.787928 0.580192,0.734596 0.01651,-0.01651 0.125338,0.05187 0.241836,0.15198 0.11651,0.100091 0.807266,0.456433 1.534954,0.791873 1.389441,0.640484 1.533134,0.843445 1.533134,1.096286 -0.640761,2.590072 -4.650356,1.802893 -6.336948,1.686935 -0.197091,-0.04945 -1.070813,0.121671 -1.643295,0.321841 -0.490858,0.17164 -0.902435,0.26113 -1.390549,0.302442 -0.231467,0.01958 -0.436902,0.05156 -0.456396,0.07106 -0.2662652,-0.07541 -0.8391214,0.01614 -0.9726416,0.108491 -0.064348,0.05341 -0.1632102,0.0893 -0.2197121,0.07985 -0.5185231,-0.09452 -2.0352882,1.37825 -2.2648518,1.194629 -0.026944,-0.02695 -0.048941,-0.0099 -0.048941,0.03804 0,0.128603 -1.0710813,0.732416 -1.1840205,0.667471 -0.053184,-0.03057 -0.068449,-0.02494 -0.034092,0.0127 0.034107,0.0374 -0.070624,0.109083 -0.2327431,0.159398 -0.1621183,0.0503 -0.3054726,0.09524 -0.3186582,0.09971 -0.013185,0.0046 -0.00243,-0.02688 0.023944,-0.06956 0.026368,-0.04268 0.010938,-0.07759 -0.034242,-0.07759 -0.045188,0 -0.082126,0.03491 -0.082126,0.07759 0,0.159016 -0.728492,0.08081 -1.1275016,-0.12108 C 3.2742367,26.4893 3.1508387,26.337838 3.0885922,25.946167 2.8989443,25.23071 4.3625836,24.207142 4.8558344,23.125066 c 0.066387,-0.08 0.1109623,-0.544628 0.1384943,-1.444947 0.02232,-0.729803 0.072467,-1.377492 0.1115228,-1.439343 0.039056,-0.06185 0.074763,-0.199014 0.0794,-0.304869 0.00462,-0.105855 0.050881,-0.206668 0.1027356,-0.223953 0.051859,-0.01723 0.074042,-0.06427 0.049244,-0.104414 -0.069246,-0.112051 0.7904355,-1.36789 0.9768848,-1.427067 0.095138,-0.0302 0.1476967,-0.09621 0.1245551,-0.156533 -0.022147,-0.05773 0.093892,-0.225381 0.2598657,-0.375327 0.4154794,-0.342625 0.4891821,-0.4176 0.7098969,-0.60277 0.1012082,-0.07782 0.2256163,-0.142241 0.2765341,-0.143184 0.050918,-9.08e-4 0.1431444,-0.0741 0.2050142,-0.162444 0.065553,-0.09359 0.124885,-0.123562 0.1421306,-0.07182 0.020358,0.06108 0.1606549,0.0371 0.4497282,-0.07682 0.2380605,-0.09383 0.4979262,-0.146087 0.5994345,-0.120624 0.1041791,0.02615 0.1791027,0.01 0.1791027,-0.03863 0,-0.04599 -0.04364,-0.06157 -0.096975,-0.03455 -0.053337,0.02702 -0.030802,-0.0046 0.050152,-0.07046 0.080957,-0.0658 0.1746105,-0.102801 0.2080444,-0.08212 0.1014878,0.0043 0.1482206,-0.08546 0.2357739,-0.120156 0.3070243,0.419849 1.2057678,0.618897 1.7029948,-0.06818 0.101991,-0.137943 0.144836,-0.190835 0.225773,-0.184711 z M 8.290607,16.08624 8.1428705,16.260799 c -0.1388879,0.164041 -0.2013776,0.209972 -0.2013776,0.147882 0,-0.01469 0.07855,-0.09328 0.174558,-0.17456 z m 2.299855,0.825663 c -0.265335,0.0027 -0.543278,0.02499 -0.8336939,0.06666 -0.7191946,0.103207 -1.2870962,0.365819 -1.7037526,0.788085 -0.4170818,0.419305 -0.5858238,0.905736 -0.5063987,1.459191 0.069229,0.482422 0.2660056,0.854451 0.590495,1.115986 0.3270243,0.25815 0.7924582,0.407246 1.3963077,0.447454 0.2985399,0.01759 0.5793195,0.02711 0.8423305,0.02864 0.26597,0.0011 0.514279,0.01542 0.744748,0.04273 0.304048,0.03489 0.536961,0.111756 0.698986,0.230472 0.164986,0.118296 0.268579,0.323855 0.310628,0.61686 0.04884,0.34036 -0.06448,0.634523 -0.340023,0.882484 -0.272578,0.24754 -0.681114,0.410369 -1.22569,0.488519 -0.384755,0.05521 -0.8070639,0.03882 -1.2667536,-0.04924 -0.4596887,-0.08808 -0.8766287,-0.247243 -1.2509943,-0.477456 l -0.062279,0.0089 0.1580414,1.100985 c 0.4186925,0.118123 0.8238095,0.194379 1.2153859,0.228804 0.3945373,0.03401 0.8301006,0.01686 1.3066056,-0.05152 0.443947,-0.06372 0.815128,-0.171332 1.113561,-0.3229 0.301391,-0.151999 0.556825,-0.339825 0.766415,-0.563221 0.190995,-0.205625 0.327745,-0.442701 0.410029,-0.71126 0.08525,-0.268985 0.109378,-0.532111 0.07243,-0.789601 -0.06795,-0.473475 -0.245141,-0.824239 -0.531553,-1.051973 -0.28641,-0.227711 -0.684634,-0.37135 -1.194625,-0.43107 -0.25161,-0.02732 -0.556269,-0.04547 -0.914002,-0.05455 -0.357732,-0.0091 -0.6343892,-0.02075 -0.8297533,-0.035 C 9.1868969,19.848402 8.9196081,19.764373 8.755034,19.627893 8.59046,19.491419 8.4884524,19.285523 8.4489527,19.010276 c -0.044173,-0.307804 0.06181,-0.579704 0.3178997,-0.815813 0.2590539,-0.236537 0.6238846,-0.38856 1.0944695,-0.456092 0.4291491,-0.06159 0.8580871,-0.05072 1.2869061,0.03274 0.431353,0.08008 0.788225,0.20864 1.070375,0.385632 l 0.06213,-0.0089 -0.149103,-1.03886 c -0.317614,-0.08733 -0.676739,-0.147465 -1.077194,-0.180617 -0.150171,-0.01251 -0.304771,-0.01796 -0.463972,-0.01632 z"
         style="fill:#ffffff;fill-opacity:1;stroke-width:0.07758107"
         inkscape:connector-curvature="0" />
      <text
         id="text7886"
         y="23.443176"
         x="20.578964"
         style="font-style:normal;font-weight:normal;font-size:7.82153416px;line-height:1.25;font-family:sans-serif;letter-spacing:0px;word-spacing:0px;fill:#000000;fill-opacity:1;stroke:none;stroke-width:0.32589725"
         xml:space="preserve"><tspan
           style="fill:#ffffff;stroke-width:0.32589725"
           y="23.443176"
           x="20.578964"
           id="tspan7884"
           sodipodi:role="line">Sherlock</tspan></text>
    </g>
  </g>
</svg>
