<?xml version="1.0" encoding="UTF-8" standalone="no"?>
<!-- Created with Inkscape (http://www.inkscape.org/) -->

<svg
   xmlns:dc="http://purl.org/dc/elements/1.1/"
   xmlns:cc="http://creativecommons.org/ns#"
   xmlns:rdf="http://www.w3.org/1999/02/22-rdf-syntax-ns#"
   xmlns:svg="http://www.w3.org/2000/svg"
   xmlns="http://www.w3.org/2000/svg"
   xmlns:sodipodi="http://sodipodi.sourceforge.net/DTD/sodipodi-0.dtd"
   xmlns:inkscape="http://www.inkscape.org/namespaces/inkscape"
   width="59.006035mm"
   height="43.175255mm"
   viewBox="0 0 59.006035 43.175255"
   version="1.1"
   id="svg7823"
   inkscape:version="0.92.3 (2405546, 2018-03-11)"
   sodipodi:docname="sherlock.svg">
  <defs
     id="defs7817" />
  <sodipodi:namedview
     id="base"
     pagecolor="#ffffff"
     bordercolor="#666666"
     borderopacity="1.0"
     inkscape:pageopacity="0.0"
     inkscape:pageshadow="2"
     inkscape:zoom="2.8"
     inkscape:cx="250.53997"
     inkscape:cy="38.228307"
     inkscape:document-units="mm"
     inkscape:current-layer="layer1"
     showgrid="false"
     fit-margin-top="0"
     fit-margin-left="0"
     fit-margin-right="0"
     fit-margin-bottom="0"
     inkscape:window-width="2880"
     inkscape:window-height="1706"
     inkscape:window-x="3829"
     inkscape:window-y="-11"
     inkscape:window-maximized="1" />
  <metadata
     id="metadata7820">
    <rdf:RDF>
      <cc:Work
         rdf:about="">
        <dc:format>image/svg+xml</dc:format>
        <dc:type
           rdf:resource="http://purl.org/dc/dcmitype/StillImage" />
        <dc:title />
      </cc:Work>
    </rdf:RDF>
  </metadata>
  <g
     inkscape:label="Ebene 1"
     inkscape:groupmode="layer"
     id="layer1"
     transform="translate(-15.097234,-16.384987)">
    <path
       style="fill:#000000;stroke-width:0.99999994"
       d="M 62.064453 0 C 60.832687 0.0053105315 59.084341 0.37658167 57.625 0.98632812 C 49.145808 4.529159 53.014056 16.055765 63.574219 18.714844 L 67.773438 19.773438 L 63.90625 23.935547 C 61.779929 26.22458 60.034192 28.362898 60.027344 28.689453 C 60.020163 29.016004 56.430967 32.309794 52.048828 36.007812 C 39.271746 46.790185 28.448245 62.071352 26.134766 72.595703 C 25.590706 75.070704 24.886787 84.424094 24.572266 93.378906 C 23.906717 112.32772 24.803641 110.19034 9.6210938 128.99609 L 0.14257812 141.77734 L 0.015625 146.66797 C -0.1075876 151.4407 0.46965303 152.9844 2.640625 155.56445 C 7.7712316 161.66184 17.542045 164.50897 26.746094 162.58984 C 29.072756 162.1047 33.005888 160.81011 35.486328 159.71289 C 41.093541 157.23256 63.292126 144.16006 68.015625 140.55664 C 69.940625 139.08811 72.50976 137.36533 73.724609 136.72852 C 76.446939 135.3015 89.055931 132.9785 98.75 132.11914 C 102.72898 131.7664 109.02898 130.57799 112.75 129.47656 C 126.76642 125.3277 135.56633 123.5131 139.00977 124.0625 C 148.90981 125.64205 178.33709 127.58959 184.01562 127.04102 C 192.37972 126.23301 201.34518 123.9798 206.34766 121.42773 C 211.59368 118.75141 219.45046 111.30743 221.42773 107.14062 C 223.67187 102.41145 223.51132 95.353407 221.10938 93.179688 C 220.06038 92.230357 211.45222 87.910937 201.98047 83.580078 C 179.63219 73.361566 177.12837 71.265838 169.95117 56.775391 C 161.89003 40.500314 150.86845 30.349375 134.47852 24.101562 C 125.8169 20.799767 114.28107 15.105477 107.7207 10.894531 C 104.97744 9.1336947 101.45542 7.4135692 99.892578 7.0703125 C 95.519529 6.1098325 86.135158 8.6511034 80.798828 12.242188 L 75.990234 15.478516 L 73.552734 10.667969 C 71.066527 5.7616733 66.564808 1.2227618 63.09375 0.12109375 C 62.828099 0.036781939 62.475042 -0.0017701772 62.064453 0 z M 66.015625 3.5957031 C 66.067243 3.5440852 66.472588 3.846825 67.265625 4.46875 C 68.931376 5.775121 69.461713 6.5957031 68.638672 6.5957031 C 68.431025 6.5957031 67.643523 5.8082052 66.888672 4.8457031 C 66.266737 4.0526751 65.964007 3.6473211 66.015625 3.5957031 z M 59.917969 3.8710938 C 62.249493 3.6373668 67.310524 7.1098044 69.265625 10.431641 C 70.228127 12.066989 71.015625 13.617945 71.015625 13.878906 C 71.015625 15.172117 61.284345 12.168451 59.765625 10.40625 C 57.630097 7.9283539 57.493472 4.7349774 59.490234 3.96875 C 59.619682 3.9190759 59.762534 3.8866755 59.917969 3.8710938 z M 98.917969 9.7324219 C 99.914844 9.7567431 100.8236 9.8454229 101.4043 9.9960938 C 104.06798 10.687146 109.01562 14.938499 109.01562 16.535156 C 92.494048 15.251194 120.5572 23.159176 87.515625 20.511719 C 85.226962 20.315146 82.201237 20.830789 80.443359 21.716797 C 78.753589 22.568487 76.616089 23.154959 75.693359 23.019531 C 74.770599 22.884111 74.015625 23.184219 74.015625 23.685547 C 74.015625 24.186882 73.585625 24.595703 73.060547 24.595703 C 72.535476 24.595703 71.810349 23.020703 71.449219 21.095703 C 71.033051 18.877313 70.224122 17.595703 69.238281 17.595703 C 68.382834 17.595703 67.961704 17.317597 68.302734 16.976562 C 68.643761 16.635536 70.530165 16.658537 72.496094 17.027344 C 74.917754 17.481651 75.83277 18.083848 75.332031 18.896484 C 74.925513 19.556197 75.813456 19.299397 77.304688 18.324219 C 78.795908 17.349036 80.015625 17.011542 80.015625 17.574219 C 80.015625 19.034152 84.194819 18.836861 88.144531 17.191406 C 92.817104 15.245237 97.549436 15.325149 102.31445 13.880859 C 104.14831 12.820777 100.46637 10.583806 96.642578 10.435547 C 92.745057 10.284441 92.704768 10.25388 95.904297 9.8632812 C 96.836102 9.7495364 97.921094 9.7081006 98.917969 9.7324219 z M 86.824219 11.666016 C 88.202711 11.723313 88.14603 11.895103 86.515625 12.595703 C 83.839712 13.745583 83.804968 13.745583 84.515625 12.595703 C 84.855556 12.045702 85.894179 11.627359 86.824219 11.666016 z M 58.03125 12.589844 C 58.115577 12.551819 58.59062 12.885952 59.515625 13.564453 C 60.615622 14.371318 61.702473 15.158824 61.931641 15.314453 C 62.160793 15.470094 61.878994 15.595703 61.304688 15.595703 C 60.730369 15.595703 59.643519 14.808205 58.888672 13.845703 C 58.253917 13.036327 57.946923 12.627868 58.03125 12.589844 z M 65.015625 15.726562 C 65.46875 15.726562 65.921875 15.794885 66.265625 15.933594 C 66.953125 16.211011 66.390613 16.439453 65.015625 16.439453 C 63.640625 16.439453 63.078125 16.211019 63.765625 15.933594 C 64.109375 15.794885 64.5625 15.726562 65.015625 15.726562 z M 111.99414 18.335938 C 112.6201 18.383301 113.42193 18.703487 114.67383 19.226562 C 116.55987 20.014602 118.55364 20.382816 119.10352 20.042969 C 119.6534 19.703114 120.6452 19.852619 121.30859 20.376953 C 121.972 20.901313 125.39256 22.312441 128.9082 23.511719 C 132.42384 24.710993 136.58039 26.354204 138.14648 27.164062 C 139.71258 27.973921 141.33759 28.655575 141.75586 28.677734 C 142.17412 28.700034 143.41562 29.50021 144.51562 30.457031 C 145.61563 31.413853 148.42158 33.468695 150.75195 35.023438 C 156.63413 38.947808 163.40239 47.165944 166.53125 54.185547 C 167.98026 57.436409 169.87249 61.670703 170.73633 63.595703 C 172.35467 67.202057 177.52742 73.751874 178.21484 73.064453 C 178.42782 72.851477 179.83039 73.733118 181.33203 75.023438 C 182.83367 76.313746 191.73749 80.90675 201.11719 85.230469 C 219.02675 93.486166 220.87891 96.102276 220.87891 99.361328 C 212.61965 132.74667 160.937 122.60015 139.19727 121.10547 C 136.65682 120.46786 125.39476 122.67372 118.01562 125.25391 C 111.68859 127.46622 106.38347 128.61982 100.0918 129.15234 C 97.108257 129.40489 94.460255 129.81708 94.208984 130.06836 C 90.776886 129.0963 83.392921 130.27729 81.671875 131.4668 C 80.842473 132.15514 79.568144 132.61779 78.839844 132.49609 C 72.15621 131.27767 52.605503 150.26139 49.646484 147.89453 C 49.299184 147.54719 49.015625 147.76735 49.015625 148.38477 C 49.015625 150.04236 35.209663 157.82541 33.753906 156.98828 C 33.068383 156.59407 32.871663 156.66694 33.314453 157.15234 C 33.754103 157.63434 32.404101 158.55852 30.314453 159.20703 C 28.224794 159.85554 26.376989 160.43452 26.207031 160.49219 C 26.037066 160.5499 26.175619 160.14571 26.515625 159.5957 C 26.855556 159.0457 26.656667 158.5957 26.074219 158.5957 C 25.491756 158.5957 25.015625 159.0457 25.015625 159.5957 C 25.015625 161.64542 15.62555 160.63734 10.482422 158.03516 C 4.8557901 155.18834 3.2652314 153.23604 2.4628906 148.1875 C 0.018375349 138.96543 18.884304 125.77191 25.242188 111.82422 C 26.097937 110.7931 26.672442 104.80412 27.027344 93.199219 C 27.315041 83.792258 27.961433 75.443704 28.464844 74.646484 C 28.968243 73.849254 29.42855 72.08124 29.488281 70.716797 C 29.547998 69.352357 30.144068 68.052889 30.8125 67.830078 C 31.480921 67.607275 31.766908 67.001562 31.447266 66.484375 C 30.554689 65.040161 41.635774 48.852617 44.039062 48.089844 C 45.265376 47.700628 45.94283 46.849612 45.644531 46.072266 C 45.359026 45.328243 46.854781 43.167157 48.994141 41.234375 C 54.349565 36.818024 55.299571 35.851623 58.144531 33.464844 C 59.449073 32.46164 61.052666 31.631367 61.708984 31.619141 C 62.365296 31.607046 63.554075 30.66397 64.351562 29.525391 C 65.196533 28.319026 65.961301 27.932753 66.183594 28.599609 C 66.446006 29.386904 68.254399 29.078054 71.980469 27.609375 C 75.049018 26.399866 78.398612 25.726292 79.707031 26.054688 C 81.049871 26.391708 82.015625 26.183494 82.015625 25.556641 C 82.015625 24.963705 81.453129 24.763086 80.765625 25.111328 C 80.078125 25.459574 80.368578 25.0513 81.412109 24.203125 C 82.455637 23.354957 83.662782 22.878177 84.09375 23.144531 C 85.401897 23.200695 86.00428 22.042976 87.132812 21.595703 C 91.090284 27.007446 102.67485 29.573126 109.08398 20.716797 C 110.39863 18.93864 110.95088 18.256999 111.99414 18.335938 z M 69.515625 21.095703 L 67.611328 23.345703 C 65.82111 25.460148 65.015625 26.052208 65.015625 25.251953 C 65.015625 25.062183 66.028128 24.049699 67.265625 23.001953 L 69.515625 21.095703 z M 99.160156 31.738281 C 95.740069 31.772823 92.157445 32.060452 88.414062 32.597656 C 79.143828 33.928006 71.823724 37.312963 66.453125 42.755859 C 61.077054 48.160605 58.902014 54.430569 59.925781 61.564453 C 60.818156 67.782759 63.354526 72.578105 67.537109 75.949219 C 71.752369 79.27671 77.751694 81.198522 85.535156 81.716797 C 89.383264 81.94326 93.002434 82.066297 96.392578 82.085938 C 99.820872 82.100103 103.02151 82.28434 105.99219 82.636719 C 109.91129 83.086603 112.91349 84.0772 115.00195 85.607422 C 117.12857 87.13217 118.46386 89.78183 119.00586 93.558594 C 119.63545 97.945742 118.17465 101.73741 114.62305 104.93359 C 111.10959 108.1243 105.84366 110.22313 98.824219 111.23047 C 93.864834 111.94218 88.421372 111.73105 82.496094 110.5957 C 76.570815 109.46035 71.196567 107.40878 66.371094 104.44141 L 65.568359 104.55664 L 67.605469 118.74805 C 73.002308 120.27071 78.224157 121.25355 83.271484 121.69727 C 88.356962 122.1355 93.971274 121.91463 100.11328 121.0332 C 105.83565 120.212 110.62008 118.82478 114.4668 116.87109 C 118.35166 114.91193 121.64415 112.49085 124.3457 109.61133 C 126.80758 106.96088 128.57024 103.90502 129.63086 100.44336 C 130.72962 96.976222 131.04075 93.584598 130.56445 90.265625 C 129.6885 84.161765 127.40467 79.640475 123.71289 76.705078 C 120.02112 73.769681 114.88809 71.9182 108.31445 71.148438 C 105.07126 70.796232 101.14429 70.562282 96.533203 70.445312 C 91.922113 70.328343 88.356081 70.177846 85.837891 69.994141 C 81.068557 69.588401 77.623269 68.50521 75.501953 66.746094 C 73.380637 64.986975 72.065787 62.333023 71.556641 58.785156 C 70.987273 54.817649 72.353311 51.312944 75.654297 48.269531 C 78.993433 45.220643 83.696009 43.261101 89.761719 42.390625 C 95.29334 41.596795 100.82225 41.73685 106.34961 42.8125 C 111.90965 43.844528 116.50963 45.501818 120.14648 47.783203 L 120.94727 47.667969 L 119.02539 34.277344 C 114.93144 33.151726 110.3024 32.376507 105.14062 31.949219 C 103.20496 31.788986 101.21221 31.717556 99.160156 31.738281 z "
       transform="matrix(0.26458333,0,0,0.26458333,15.097234,16.384987)"
       id="path7836" />
    <flowRoot
       xml:space="preserve"
       id="flowRoot7838"
       style="font-style:normal;font-weight:normal;font-size:192px;line-height:1.25;font-family:sans-serif;letter-spacing:0px;word-spacing:0px;fill:#000000;fill-opacity:1;stroke:none"
       transform="scale(0.26458333)"><flowRegion
         id="flowRegion7840"
         style="font-size:192px"><rect
           id="rect7842"
           width="95.459419"
           height="69.953064"
           x="116.92516"
           y="102.26561"
           style="font-size:192px" /></flowRegion><flowPara
         id="flowPara7844" /></flowRoot>    <g
       aria-label="S"
       transform="rotate(-8.1666281)"
       style="font-style:normal;font-weight:normal;font-size:31.32526779px;line-height:1.25;font-family:sans-serif;letter-spacing:0px;word-spacing:0px;fill:#000000;fill-opacity:1;stroke:none;stroke-width:1.95782924"
       id="text7848" />
  </g>
</svg>
